
<svg version="1.1" id="Layer_1" xmlns="http://www.w3.org/2000/svg" xmlns:xlink="http://www.w3.org/1999/xlink" x="0px" y="0px"
	 viewBox="0 0 340 274" style="enable-background:new 0 0 340 274;" xml:space="preserve">
<style type="text/css">
	.st0{fill:none;stroke:#253D7F;stroke-width:1.93;stroke-miterlimit:10;}
	.st1{opacity:0.1;fill:#253D7F;enable-background:new    ;}
	.st2{fill:none;stroke:#6AC9C8;stroke-width:1.93;stroke-miterlimit:10;}
	.st3{fill:none;stroke:#E2E42B;stroke-width:1.93;stroke-miterlimit:10;}
	.st4{opacity:0.5;fill:none;stroke:#6AC9C8;stroke-width:1.93;stroke-miterlimit:10;enable-background:new    ;}
	.st5{fill:#6AC9C8;}
	.st6{fill:#E2E42B;}
	.st7{fill:#253D7F;}
	.st8{opacity:0.5;fill:#1C2D5A;enable-background:new    ;}
	.st9{fill:#6D6E71;}
</style>
<title>Investica Error illustrations</title>
<g>
	<g id="_x34_9f0c6a6-daca-4efb-b86b-42df3fc61e69">
		<path class="st0" d="M255.5,156.2l48.1,48.1c7.2,7.2,7.2,18.9,0,26.2l0,0l0,0c-7.2,7.2-18.9,7.2-26.2,0l0,0l-48.1-48.1l0,0
			L255.5,156.2L255.5,156.2L255.5,156.2z"/>
		<circle class="st1" cx="177.7" cy="112" r="54.4"/>
		<path class="st0" d="M223.8,166.8v78.3c0,2.1-1.7,3.8-3.8,3.8c0,0-0.1,0-0.1,0H69.8c-2.1,0-3.8-1.7-3.9-3.8v-170
			c0-2.2,1.7-3.9,3.9-3.9l0,0h48.4"/>
		<circle class="st0" cx="177.7" cy="112" r="54.4"/>
		<circle class="st0" cx="177.7" cy="112" r="71.8"/>
		<circle class="st2" cx="265.7" cy="127.5" r="5.2"/>
		<circle class="st3" cx="39.2" cy="231" r="5.2"/>
		<line class="st0" x1="286.4" y1="90" x2="286.4" y2="101.6"/>
		<line class="st0" x1="280.5" y1="95.8" x2="292.2" y2="95.8"/>
		<line class="st2" x1="258.3" y1="79.9" x2="258.3" y2="89.2"/>
		<line class="st2" x1="253.7" y1="84.6" x2="263" y2="84.6"/>
		<line class="st2" x1="81.2" y1="103.5" x2="103.9" y2="103.5"/>
		<line class="st4" x1="132.6" y1="103.5" x2="172.5" y2="103.5"/>
		<line class="st2" x1="81.2" y1="121.7" x2="103.9" y2="121.7"/>
		<line class="st4" x1="128.2" y1="121.7" x2="176.4" y2="121.7"/>
		<line class="st4" x1="200.1" y1="121.7" x2="221.2" y2="121.7"/>
		<line class="st2" x1="81.2" y1="156.6" x2="103.9" y2="156.6"/>
		<line class="st2" x1="81.2" y1="174.7" x2="139.3" y2="174.7"/>
		<line class="st2" x1="81.2" y1="212.9" x2="163.7" y2="212.9"/>
		<line class="st2" x1="81.2" y1="192.4" x2="101" y2="192.4"/>
		<line class="st2" x1="107.8" y1="192.4" x2="131.4" y2="192.4"/>
		<line class="st2" x1="139.1" y1="192.4" x2="178.6" y2="192.4"/>
		<line class="st2" x1="81.2" y1="138.5" x2="93.5" y2="138.5"/>
		<line class="st2" x1="95.9" y1="138.5" x2="108.2" y2="138.5"/>
		<line class="st4" x1="155.4" y1="138.5" x2="167.7" y2="138.5"/>
		<line class="st4" x1="174" y1="138.5" x2="219.5" y2="138.5"/>
		<line class="st0" x1="237.6" y1="173.7" x2="227.2" y2="163.2"/>
		<line class="st0" x1="236.5" y1="154" x2="246.9" y2="164.4"/>
		<line class="st0" x1="274.7" y1="227.5" x2="300.8" y2="201.4"/>
		<line class="st0" x1="276.8" y1="210.2" x2="253.5" y2="186.9"/>
		<line class="st0" x1="284.4" y1="202.6" x2="261.1" y2="179.3"/>
		<polygon class="st5" points="300,121.7 306.3,128.1 300,134.4 		"/>
		<polygon class="st6" points="246.4,42.9 240.1,49.2 246.4,55.5 		"/>
		<polygon class="st6" points="94.5,264.1 100.8,257.8 107.1,264.1 		"/>
		<polygon class="st7" points="68.4,262.2 62,268.5 55.7,262.2 		"/>
		<rect x="3.8" y="249.2" class="st8" width="252.1" height="3.2"/>
		<rect x="263" y="249.2" class="st8" width="75.2" height="3.2"/>
		<path class="st5" d="M184.4,115.7c-0.1-1.1,0.3-2.3,1.1-3.1c0.9-0.7,2-1.1,3.1-1c1.1,0,2.2,0.4,3.1,1.1c0.7,0.8,1.1,1.9,1,3
			c0.1,1.1-0.3,2.1-1,2.9c-0.9,0.7-2,1.1-3.1,1.1c-1.1,0.1-2.3-0.3-3.1-1.1C184.8,117.8,184.4,116.8,184.4,115.7z M185.2,107.5v-1.7
			c-0.1-1.4,0.3-2.8,1-4c0.9-1.4,2.1-2.6,3.5-3.6c1.3-0.8,2.4-1.7,3.3-2.9c0.5-0.7,0.8-1.6,0.8-2.5c0-0.9-0.4-1.8-1.1-2.3
			c-0.9-0.6-2.1-0.9-3.2-0.8c-2.8,0.1-5.6,0.9-8.1,2.3l-2.6-5.2c3.4-2,7.3-3,11.2-3c2.8-0.2,5.6,0.7,7.8,2.4c1.9,1.5,3,3.8,2.9,6.2
			c0,1.6-0.4,3.2-1.2,4.6c-1.2,1.7-2.8,3.1-4.5,4.2c-1.1,0.8-2,1.6-2.9,2.6c-0.4,0.7-0.6,1.5-0.6,2.3v1.4H185.2z"/>
		<path class="st9" d="M63.9,8.8h8.2c1.8,0,3.7,0.4,5.3,1.2c1.5,0.7,2.7,1.8,3.6,3.2c0.8,1.5,1.3,3.2,1.3,4.9c0,1.7-0.4,3.4-1.3,4.9
			c-0.9,1.4-2.1,2.5-3.6,3.3c-1.6,0.8-3.5,1.2-5.3,1.2h-8.2V8.8z M71.9,24.5c1.3,0.1,2.5-0.2,3.6-0.8c1-0.4,1.9-1.2,2.4-2.2
			c0.6-1,0.9-2.2,0.9-3.4c0-1.2-0.3-2.3-0.9-3.3c-0.5-1-1.4-1.8-2.4-2.3c-1.1-0.5-2.4-0.8-3.6-0.8h-4.5v12.8H71.9z"/>
		<path class="st9" d="M95.9,14.6c1.2,1.2,1.7,2.8,1.6,4.5v8.4h-3.1v-1.8c-0.4,0.6-1,1.2-1.7,1.5c-0.9,0.3-1.8,0.5-2.8,0.5
			c-1,0-1.9-0.2-2.8-0.6c-0.7-0.3-1.3-0.8-1.8-1.5c-0.5-0.6-0.7-1.4-0.7-2.2c0-1.2,0.5-2.3,1.4-3.1c1.3-0.9,2.9-1.3,4.5-1.2h3.7
			v-0.2c0-0.9-0.3-1.7-0.9-2.3c-0.7-0.6-1.7-0.8-2.6-0.8c-0.8,0-1.6,0.2-2.4,0.4c-0.7,0.2-1.4,0.6-2,1.1L85,14.8
			c0.8-0.6,1.7-1,2.7-1.3c1.1-0.3,2.3-0.4,3.4-0.4C92.8,13,94.5,13.5,95.9,14.6z M92.8,24.7c0.6-0.4,1.1-1,1.4-1.7v-1.6h-3.4
			c-1.9,0-2.9,0.6-2.9,1.9c0,0.6,0.2,1.1,0.7,1.4c0.6,0.3,1.3,0.5,2,0.5C91.4,25.2,92.1,25,92.8,24.7z"/>
		<path class="st9" d="M110.4,26.7c-0.4,0.3-1,0.6-1.5,0.7c-0.5,0.2-1.1,0.3-1.7,0.3c-1.4,0-2.7-0.4-3.7-1.3c-0.9-1-1.3-2.2-1.2-3.5
			V16h-2.4v-2.7h2.4v-3.2h3.3v3.2h3.8V16h-3.8v6.8c0,0.6,0.2,1.1,0.5,1.6c0.4,0.4,1,0.5,1.5,0.5c0.7,0,1.3-0.2,1.8-0.6L110.4,26.7z"
			/>
		<path class="st9" d="M123.4,14.6c1.2,1.2,1.7,2.8,1.6,4.5v8.4h-3.1v-1.8c-0.4,0.7-1.1,1.2-1.8,1.5c-0.9,0.3-1.8,0.5-2.7,0.5
			c-1,0-1.9-0.2-2.8-0.6c-0.7-0.3-1.3-0.8-1.8-1.5c-0.5-0.6-0.7-1.4-0.7-2.2c0-1.2,0.5-2.3,1.4-3.1c1.3-0.9,2.9-1.3,4.5-1.2h3.7
			v-0.2c0-0.9-0.3-1.7-0.9-2.3c-0.7-0.6-1.7-0.8-2.6-0.8c-0.8,0-1.6,0.2-2.4,0.4c-0.7,0.2-1.4,0.6-2,1.1l-1.3-2.5
			c0.8-0.6,1.7-1,2.7-1.3c1.1-0.3,2.3-0.4,3.4-0.4C120.3,13,122,13.5,123.4,14.6z M120.3,24.7c0.6-0.4,1.1-1,1.4-1.7v-1.6h-3.4
			c-2,0-2.9,0.6-2.9,1.9c0,0.6,0.2,1.1,0.7,1.4c0.6,0.4,1.3,0.5,2,0.5C118.9,25.2,119.6,25,120.3,24.7z"/>
		<path class="st9" d="M153.6,8.8v18.7h-2.9l-10.3-12.7v12.7H137V8.8h2.8l10.3,12.6V8.8H153.6z"/>
		<path class="st9" d="M160.8,26.7c-1.2-0.6-2.1-1.5-2.8-2.6c-0.6-1.2-0.9-2.5-0.9-3.8c0-1.3,0.3-2.6,0.9-3.7c0.7-1.1,1.6-2,2.8-2.6
			c1.2-0.6,2.5-0.9,3.8-0.9c1.4,0,2.8,0.3,4,0.9c2.3,1.2,3.7,3.7,3.6,6.3c0,1.3-0.3,2.6-0.9,3.8c-0.7,1.1-1.6,2-2.7,2.6
			c-1.2,0.6-2.6,1-4,1C163.3,27.7,162,27.3,160.8,26.7z M167.7,23.6c0.8-0.9,1.3-2.1,1.2-3.3c0-1.2-0.4-2.3-1.2-3.2
			c-0.8-0.8-1.9-1.3-3.1-1.2c-1.1,0-2.2,0.4-3,1.2c-0.8,0.9-1.2,2-1.2,3.2c-0.1,1.2,0.4,2.4,1.2,3.3c0.8,0.8,1.9,1.2,3,1.2
			C165.8,24.9,166.9,24.4,167.7,23.6z"/>
		<path class="st9" d="M184,26.7c-0.4,0.3-0.9,0.6-1.4,0.7c-0.6,0.2-1.2,0.3-1.8,0.3c-1.3,0.1-2.6-0.4-3.6-1.3
			c-0.9-0.9-1.4-2.2-1.3-3.5V16h-2.4v-2.7h2.4v-3.2h3.3v3.2h3.8V16h-3.8v6.8c0,0.6,0.2,1.1,0.5,1.6c0.4,0.3,1,0.5,1.5,0.5
			c0.7,0,1.3-0.2,1.9-0.6L184,26.7z"/>
		<path class="st9" d="M197.9,11.7v5.7h9v2.9h-9v7.2h-3.5V8.8H208v2.9H197.9z"/>
		<path class="st9" d="M213.2,26.7c-1.1-0.6-2.1-1.5-2.7-2.6c-0.7-1.1-1.1-2.5-1-3.8c0-1.3,0.3-2.6,1-3.7c0.6-1.1,1.6-2,2.7-2.6
			c1.2-0.6,2.5-0.9,3.9-0.9c1.4,0,2.7,0.3,3.9,0.9c1.1,0.6,2.1,1.5,2.7,2.6c0.7,1.1,1,2.4,1,3.7c0.1,1.3-0.3,2.7-1,3.8
			c-0.6,1.1-1.6,2-2.7,2.6c-1.2,0.6-2.5,1-3.9,1C215.7,27.7,214.4,27.4,213.2,26.7z M220.1,23.6c0.8-0.9,1.3-2.1,1.2-3.3
			c0-1.2-0.4-2.3-1.2-3.2c-0.8-0.8-1.9-1.2-3-1.2c-1.1-0.1-2.2,0.4-3,1.2c-0.8,0.9-1.2,2-1.2,3.2c-0.1,1.2,0.4,2.4,1.2,3.3
			c0.8,0.8,1.9,1.3,3,1.2C218.2,24.8,219.3,24.4,220.1,23.6L220.1,23.6z"/>
		<path class="st9" d="M241.7,13.2v14.3h-3.2v-1.8c-0.5,0.6-1.2,1.1-2,1.4c-0.8,0.4-1.7,0.6-2.6,0.6c-1.6,0.1-3.3-0.5-4.5-1.6
			c-1.1-1.3-1.7-3-1.6-4.7v-8.2h3.3v7.7c-0.1,1,0.2,2.1,0.9,2.9c0.6,0.6,1.5,1,2.4,0.9c1.1,0.1,2.1-0.3,2.9-1.1c0.7-0.9,1.1-2,1-3.2
			v-7.2L241.7,13.2z"/>
		<path class="st9" d="M258.4,14.6c1.2,1.3,1.7,3,1.6,4.7v8.2h-3.3v-7.8c0.1-1-0.3-2-0.9-2.8c-0.7-0.6-1.6-1-2.5-0.9
			c-1.1-0.1-2.1,0.3-2.9,1.1c-0.7,0.9-1.1,2-1,3.2v7.2H246V13.2h3.2v1.9c0.5-0.7,1.3-1.2,2.1-1.5c0.9-0.4,1.8-0.5,2.8-0.5
			C255.7,13,257.2,13.6,258.4,14.6z"/>
		<path class="st9" d="M278.4,7.7v19.8h-3.2v-1.9c-0.6,0.7-1.3,1.2-2.1,1.5c-0.8,0.4-1.8,0.6-2.7,0.6c-2.5,0-4.9-1.4-6.2-3.5
			c-0.7-1.2-1-2.5-1-3.9c0-1.3,0.4-2.6,1-3.8c0.6-1.1,1.5-1.9,2.6-2.5c1.1-0.6,2.3-0.9,3.6-0.9c0.9,0,1.8,0.1,2.6,0.5
			c0.8,0.3,1.5,0.8,2,1.4V7.7L278.4,7.7z M273,24.3c0.6-0.4,1.2-0.9,1.5-1.6c0.4-0.7,0.6-1.6,0.6-2.4c0-0.8-0.2-1.6-0.6-2.3
			c-0.3-0.7-0.9-1.2-1.5-1.6c-0.7-0.3-1.4-0.5-2.2-0.5c-0.7,0-1.4,0.2-2.1,0.5c-0.7,0.3-1.2,0.9-1.5,1.6c-0.4,0.7-0.6,1.5-0.6,2.3
			c0,0.8,0.2,1.7,0.6,2.4c0.3,0.7,0.8,1.3,1.5,1.6c0.7,0.3,1.4,0.5,2.1,0.5C271.6,24.8,272.3,24.6,273,24.3z"/>
	</g>
</g>
</svg>
